<svg width="500" height="500" viewBox="0 0 500 500" fill="none" xmlns="http://www.w3.org/2000/svg">
<path d="M316.838 116.317C334.55 116.37 351.522 123.429 364.046 135.954C376.571 148.478 383.63 165.45 383.683 183.162V316.838C383.63 334.55 376.571 351.522 364.046 364.046C351.522 376.57 334.55 383.63 316.838 383.683H183.162C165.45 383.63 148.479 376.57 135.954 364.046C123.43 351.522 116.37 334.55 116.317 316.838V183.162C116.37 165.45 123.43 148.478 135.954 135.954C148.479 123.429 165.45 116.37 183.162 116.317H316.838ZM316.838 89.5833H183.162C131.693 89.5833 89.5835 131.693 89.5835 183.162V316.838C89.5835 368.307 131.693 410.417 183.162 410.417H316.838C368.307 410.417 410.417 368.307 410.417 316.838V183.162C410.417 131.693 368.307 89.5833 316.838 89.5833Z" fill="black"/>
<path d="M336.89 183.162C332.924 183.162 329.047 181.986 325.749 179.783C322.452 177.58 319.882 174.448 318.364 170.784C316.846 167.12 316.449 163.088 317.223 159.198C317.997 155.309 319.906 151.736 322.711 148.931C325.515 146.127 329.088 144.217 332.978 143.444C336.868 142.67 340.899 143.067 344.563 144.585C348.227 146.102 351.359 148.672 353.562 151.97C355.766 155.268 356.942 159.144 356.942 163.11C356.947 165.745 356.433 168.355 355.427 170.791C354.421 173.226 352.944 175.439 351.081 177.302C349.218 179.165 347.005 180.642 344.57 181.648C342.135 182.653 339.525 183.168 336.89 183.162Z" fill="black"/>
<path d="M250 196.525C260.576 196.525 270.915 199.662 279.709 205.537C288.503 211.413 295.357 219.765 299.404 229.536C303.452 239.307 304.511 250.059 302.447 260.432C300.384 270.805 295.291 280.334 287.812 287.812C280.334 295.291 270.806 300.384 260.432 302.447C250.059 304.51 239.307 303.451 229.536 299.404C219.765 295.357 211.413 288.503 205.538 279.709C199.662 270.915 196.526 260.576 196.526 250C196.541 235.822 202.179 222.23 212.205 212.204C222.23 202.179 235.822 196.541 250 196.525ZM250 169.792C234.136 169.792 218.629 174.496 205.439 183.309C192.249 192.123 181.968 204.649 175.897 219.306C169.827 233.962 168.238 250.089 171.333 265.648C174.428 281.207 182.067 295.498 193.284 306.716C204.502 317.933 218.793 325.572 234.352 328.667C249.911 331.762 266.038 330.174 280.694 324.103C295.351 318.032 307.877 307.752 316.691 294.561C325.504 281.371 330.208 265.864 330.208 250C330.208 228.727 321.758 208.326 306.716 193.284C291.674 178.242 271.273 169.792 250 169.792Z" fill="black"/>
</svg>
