<svg width="1000" height="1000" viewBox="0 0 1000 1000" fill="none" xmlns="http://www.w3.org/2000/svg">
<path d="M566.838 366.317C584.55 366.37 601.522 373.429 614.046 385.954C626.571 398.478 633.63 415.45 633.683 433.162V566.838C633.63 584.55 626.571 601.522 614.046 614.046C601.522 626.57 584.55 633.63 566.838 633.683H433.162C415.45 633.63 398.479 626.57 385.954 614.046C373.43 601.522 366.37 584.55 366.317 566.838V433.162C366.37 415.45 373.43 398.478 385.954 385.954C398.479 373.429 415.45 366.37 433.162 366.317H566.838V366.317ZM566.838 339.583H433.162C381.693 339.583 339.583 381.693 339.583 433.162V566.838C339.583 618.307 381.693 660.417 433.162 660.417H566.838C618.307 660.417 660.417 618.307 660.417 566.838V433.162C660.417 381.693 618.307 339.583 566.838 339.583V339.583Z" fill="black"/>
<path d="M586.89 433.162C582.924 433.162 579.047 431.986 575.749 429.783C572.452 427.58 569.882 424.448 568.364 420.784C566.846 417.12 566.449 413.088 567.223 409.198C567.997 405.309 569.906 401.736 572.711 398.931C575.515 396.127 579.088 394.217 582.978 393.444C586.867 392.67 590.899 393.067 594.563 394.585C598.227 396.102 601.359 398.672 603.562 401.97C605.766 405.268 606.942 409.144 606.942 413.11C606.947 415.745 606.433 418.355 605.427 420.791C604.421 423.226 602.944 425.439 601.081 427.302C599.218 429.165 597.005 430.642 594.57 431.648C592.135 432.653 589.525 433.168 586.89 433.162V433.162Z" fill="black"/>
<path d="M500 446.525C510.576 446.525 520.915 449.662 529.709 455.537C538.503 461.413 545.357 469.765 549.404 479.536C553.452 489.307 554.511 500.059 552.447 510.432C550.384 520.805 545.291 530.334 537.812 537.812C530.334 545.291 520.806 550.384 510.432 552.447C500.059 554.51 489.307 553.451 479.536 549.404C469.765 545.357 461.413 538.503 455.538 529.709C449.662 520.915 446.526 510.576 446.526 500C446.541 485.822 452.179 472.23 462.205 462.204C472.23 452.179 485.822 446.541 500 446.525V446.525ZM500 419.792C484.136 419.792 468.629 424.496 455.439 433.309C442.249 442.123 431.968 454.649 425.897 469.306C419.827 483.962 418.238 500.089 421.333 515.648C424.428 531.207 432.067 545.498 443.284 556.716C454.502 567.933 468.793 575.572 484.352 578.667C499.911 581.762 516.038 580.174 530.694 574.103C545.351 568.032 557.877 557.752 566.691 544.561C575.504 531.371 580.208 515.864 580.208 500C580.208 478.727 571.758 458.326 556.716 443.284C541.674 428.242 521.273 419.792 500 419.792V419.792Z" fill="black"/>
</svg>
