<svg width="1000" height="1000" viewBox="0 0 1000 1000" fill="none"
    xmlns="http://www.w3.org/2000/svg">
    <path d="M328.125 531.25C328.125 514.674 334.71 498.777 346.431 487.056C358.152 475.335 374.049 468.75 390.625 468.75H609.375C625.951 468.75 641.848 475.335 653.569 487.056C665.29 498.777 671.875 514.674 671.875 531.25V687.5C671.875 704.076 665.29 719.973 653.569 731.694C641.848 743.415 625.951 750 609.375 750H390.625C374.049 750 358.152 743.415 346.431 731.694C334.71 719.973 328.125 704.076 328.125 687.5V531.25Z" fill="#808080"/>
    <path fill-rule="evenodd" clip-rule="evenodd" d="M390.625 375C390.625 345.992 402.148 318.172 422.66 297.66C443.172 277.148 470.992 265.625 500 265.625C529.008 265.625 556.828 277.148 577.34 297.66C597.852 318.172 609.375 345.992 609.375 375V468.75H578.125V375C578.125 354.28 569.894 334.409 555.243 319.757C540.591 305.106 520.72 296.875 500 296.875C479.28 296.875 459.409 305.106 444.757 319.757C430.106 334.409 421.875 354.28 421.875 375V468.75H390.625V375Z" fill="#808080"/>
</svg>
