<svg width="2436" height="1000" viewBox="0 0 2436 1000" fill="none" xmlns="http://www.w3.org/2000/svg">
<circle cx="453.298" cy="382.7" r="211.7" fill="#149ADA"/>
<circle cx="497.099" cy="616.3" r="211.7" fill="#EF3C33"/>
<rect x="227" y="171" width="233.6" height="657" fill="#F7AE17"/>
<path d="M878.833 668.598V325H1016.76C1052.43 325 1079.59 333.345 1098.25 350.034C1117.22 366.395 1126.71 387.502 1126.71 413.354C1126.71 434.951 1120.82 452.295 1109.04 465.384C1097.59 478.147 1083.52 486.818 1066.83 491.4C1086.46 495.327 1102.66 505.144 1115.43 520.851C1128.19 536.231 1134.57 554.229 1134.57 574.845C1134.57 602.006 1124.75 624.421 1105.12 642.092C1085.48 659.763 1057.67 668.598 1021.67 668.598H878.833ZM941.663 469.311H1007.44C1025.11 469.311 1038.69 465.221 1048.18 457.04C1057.67 448.859 1062.41 437.242 1062.41 422.189C1062.41 407.791 1057.67 396.501 1048.18 388.32C1039.02 379.812 1025.11 375.558 1006.46 375.558H941.663V469.311ZM941.663 617.549H1011.85C1030.51 617.549 1044.91 613.295 1055.05 604.787C1065.52 595.952 1070.76 583.68 1070.76 567.973C1070.76 551.938 1065.36 539.34 1054.56 530.177C1043.76 521.015 1029.2 516.433 1010.87 516.433H941.663V617.549Z" fill="black"/>
<path d="M1270.96 674.488C1250.01 674.488 1232.83 671.216 1219.42 664.671C1206 657.799 1196.02 648.8 1189.48 637.674C1182.93 626.548 1179.66 614.277 1179.66 600.86C1179.66 578.281 1188.49 559.956 1206.16 545.885C1223.83 531.813 1250.34 524.778 1285.68 524.778H1347.53V518.888C1347.53 502.198 1342.79 489.927 1333.3 482.073C1323.81 474.22 1312.03 470.293 1297.95 470.293C1285.19 470.293 1274.07 473.402 1264.58 479.619C1255.09 485.509 1249.2 494.345 1246.91 506.125H1185.55C1187.18 488.455 1193.07 473.074 1203.22 459.985C1213.69 446.896 1227.11 436.915 1243.47 430.043C1259.83 422.844 1278.16 419.244 1298.44 419.244C1333.13 419.244 1360.46 427.916 1380.42 445.259C1400.38 462.603 1410.36 487.146 1410.36 518.888V668.598H1356.86L1350.97 629.33C1343.77 642.419 1333.62 653.218 1320.53 661.726C1307.77 670.234 1291.25 674.488 1270.96 674.488ZM1285.19 625.403C1303.19 625.403 1317.1 619.513 1326.91 607.732C1337.06 595.952 1343.44 581.39 1346.06 564.046H1292.55C1275.87 564.046 1263.92 567.155 1256.72 573.372C1249.52 579.263 1245.92 586.625 1245.92 595.461C1245.92 604.951 1249.52 612.313 1256.72 617.549C1263.92 622.785 1273.41 625.403 1285.19 625.403Z" fill="black"/>
<path d="M1470.32 668.598V425.134H1525.78L1530.69 466.366C1538.22 451.968 1549.02 440.514 1563.09 432.006C1577.49 423.498 1594.34 419.244 1613.65 419.244C1643.75 419.244 1667.15 428.734 1683.84 447.714C1700.53 466.693 1708.87 494.508 1708.87 531.159V668.598H1646.04V537.049C1646.04 516.106 1641.79 500.071 1633.28 488.945C1624.77 477.819 1611.52 472.256 1593.52 472.256C1575.85 472.256 1561.29 478.474 1549.84 490.909C1538.71 503.344 1533.15 520.687 1533.15 542.939V668.598H1470.32Z" fill="black"/>
<path d="M1877.43 668.598C1851.91 668.598 1831.45 662.381 1816.07 649.946C1800.69 637.511 1793 615.422 1793 583.68V477.656H1751.28V425.134H1793L1800.37 359.851H1855.83V425.134H1921.61V477.656H1855.83V584.171C1855.83 595.952 1858.29 604.133 1863.2 608.714C1868.43 612.968 1877.27 615.095 1889.7 615.095H1920.13V668.598H1877.43Z" fill="black"/>
<path d="M2066.85 674.488C2036.42 674.488 2012.86 664.999 1996.17 646.019C1979.81 627.039 1971.62 599.224 1971.62 562.574V425.134H2033.96V556.683C2033.96 577.626 2038.22 593.661 2046.73 604.787C2055.23 615.913 2068.65 621.476 2086.98 621.476C2104.32 621.476 2118.55 615.259 2129.68 602.824C2141.13 590.389 2146.86 573.045 2146.86 550.793V425.134H2209.69V668.598H2154.22L2149.31 627.366C2141.79 641.765 2130.83 653.218 2116.43 661.726C2102.36 670.234 2085.83 674.488 2066.85 674.488Z" fill="black"/>
</svg>
