<svg width="2303" height="763" viewBox="0 0 2303 763" fill="none" xmlns="http://www.w3.org/2000/svg">
<circle cx="262.866" cy="245.856" r="245.856" fill="#149ADA"/>
<circle cx="313.734" cy="517.144" r="245.856" fill="#EF3C33"/>
<rect x="0.0570068" width="271.289" height="763" fill="#F7AE17"/>
<path d="M757.057 577.88V178.846H917.24C958.664 178.846 990.207 188.537 1011.87 207.919C1033.91 226.92 1044.93 251.432 1044.93 281.455C1044.93 306.537 1038.09 326.679 1024.41 341.88C1011.11 356.701 994.767 366.772 975.385 372.093C998.187 376.653 1017 388.054 1031.82 406.296C1046.64 424.157 1054.05 445.059 1054.05 469.001C1054.05 500.544 1042.65 526.576 1019.85 547.098C997.047 567.619 964.744 577.88 922.941 577.88H757.057ZM830.023 346.441H906.409C926.931 346.441 942.702 341.69 953.723 332.189C964.744 322.689 970.255 309.197 970.255 291.716C970.255 274.995 964.744 261.883 953.723 252.383C943.083 242.502 926.931 237.561 905.269 237.561H830.023V346.441ZM830.023 518.595H911.54C933.202 518.595 949.923 513.655 961.704 503.774C973.865 493.513 979.946 479.262 979.946 461.02C979.946 442.399 973.675 427.768 961.134 417.127C948.593 406.486 931.682 401.165 910.4 401.165H830.023V518.595Z" fill="black"/>
<path d="M1212.45 584.721C1188.12 584.721 1168.17 580.921 1152.59 573.32C1137.01 565.339 1125.42 554.888 1117.82 541.967C1110.22 529.046 1106.42 514.795 1106.42 499.214C1106.42 472.991 1116.68 451.71 1137.2 435.368C1157.72 419.027 1188.5 410.856 1229.55 410.856H1301.37V404.016C1301.37 384.634 1295.86 370.383 1284.84 361.262C1273.82 352.141 1260.14 347.581 1243.8 347.581C1228.98 347.581 1216.06 351.191 1205.03 358.412C1194.01 365.252 1187.17 375.513 1184.51 389.194H1113.26C1115.16 368.673 1122 350.811 1133.78 335.61C1145.94 320.408 1161.52 308.817 1180.52 300.837C1199.52 292.476 1220.81 288.296 1244.37 288.296C1284.65 288.296 1316.38 298.367 1339.57 318.508C1362.75 338.65 1374.34 367.152 1374.34 404.016V577.88H1312.2L1305.36 532.276C1297 547.478 1285.22 560.019 1270.02 569.9C1255.2 579.781 1236.01 584.721 1212.45 584.721ZM1228.98 527.716C1249.88 527.716 1266.03 520.876 1277.43 507.194C1289.21 493.513 1296.62 476.602 1299.66 456.46H1237.53C1218.15 456.46 1204.27 460.07 1195.91 467.291C1187.55 474.132 1183.37 482.682 1183.37 492.943C1183.37 503.964 1187.55 512.515 1195.91 518.595C1204.27 524.676 1215.3 527.716 1228.98 527.716Z" fill="black"/>
<path d="M1443.97 577.88V295.136H1508.39L1514.09 343.02C1522.83 326.299 1535.37 312.998 1551.71 303.117C1568.43 293.236 1588 288.296 1610.42 288.296C1645.39 288.296 1672.56 299.317 1691.94 321.358C1711.32 343.4 1721.01 375.703 1721.01 418.267V577.88H1648.05V425.107C1648.05 400.785 1643.11 382.164 1633.23 369.243C1623.34 356.321 1607.95 349.861 1587.05 349.861C1566.53 349.861 1549.62 357.082 1536.32 371.523C1523.4 385.964 1516.94 406.106 1516.94 431.948V577.88H1443.97Z" fill="black"/>
<path d="M1916.77 577.88C1887.12 577.88 1863.37 570.66 1845.51 556.219C1827.65 541.777 1818.72 516.125 1818.72 479.262V356.131H1770.26V295.136H1818.72L1827.27 219.32H1891.68V295.136H1968.07V356.131H1891.68V479.832C1891.68 493.513 1894.54 503.014 1900.24 508.334C1906.32 513.275 1916.58 515.745 1931.02 515.745H1966.36V577.88H1916.77Z" fill="black"/>
<path d="M2136.75 584.721C2101.41 584.721 2074.04 573.7 2054.66 551.658C2035.66 529.616 2026.16 497.313 2026.16 454.75V295.136H2098.55V447.909C2098.55 472.231 2103.5 490.853 2113.38 503.774C2123.26 516.695 2138.84 523.156 2160.12 523.156C2180.26 523.156 2196.79 515.935 2209.71 501.494C2223.02 487.053 2229.67 466.911 2229.67 441.069V295.136H2302.63V577.88H2238.22L2232.52 529.996C2223.78 546.718 2211.04 560.019 2194.32 569.9C2177.98 579.781 2158.79 584.721 2136.75 584.721Z" fill="black"/>
</svg>
