<svg width="500" height="500" viewBox="0 0 500 500" fill="none" xmlns="http://www.w3.org/2000/svg">
<path d="M421.875 145.085C408.98 150.688 395.337 154.379 381.377 156.042C396.048 147.451 407.082 133.802 412.408 117.656C398.536 125.767 383.386 131.458 367.605 134.486C360.96 127.521 352.968 121.981 344.115 118.202C335.262 114.422 325.733 112.482 316.107 112.5C277.135 112.5 245.596 143.581 245.596 181.895C245.568 187.224 246.179 192.537 247.415 197.721C219.468 196.411 192.103 189.282 167.07 176.79C142.037 164.298 119.887 146.719 102.037 125.176C95.775 135.733 92.4632 147.778 92.4479 160.052C92.4479 184.115 105.002 205.384 123.958 217.845C112.727 217.579 101.726 214.606 91.8893 209.18V210.039C91.8893 243.698 116.238 271.699 148.465 278.073C142.405 279.689 136.16 280.507 129.888 280.508C125.438 280.516 120.998 280.084 116.632 279.219C125.591 306.79 151.666 326.843 182.553 327.415C157.455 346.758 126.641 357.212 94.9544 357.136C89.3299 357.127 83.7107 356.792 78.125 356.133C110.36 376.717 147.831 387.604 186.077 387.5C315.957 387.5 386.913 281.725 386.913 189.987C386.913 186.979 386.834 183.971 386.691 181.035C400.463 171.239 412.378 159.065 421.875 145.085Z" fill="black"/>
</svg>
