<svg width="1000" height="1000" viewBox="0 0 1000 1000" fill="none" xmlns="http://www.w3.org/2000/svg">
<path d="M671.875 395.085C658.98 400.688 645.337 404.379 631.377 406.042C646.048 397.451 657.082 383.802 662.408 367.656C648.536 375.767 633.386 381.458 617.605 384.486C610.96 377.521 602.968 371.981 594.115 368.202C585.262 364.422 575.733 362.482 566.107 362.5C527.135 362.5 495.596 393.581 495.596 431.895C495.568 437.224 496.179 442.537 497.415 447.721C469.468 446.411 442.103 439.282 417.07 426.79C392.037 414.298 369.887 396.719 352.037 375.176C345.775 385.733 342.463 397.778 342.448 410.052C342.448 434.115 355.002 455.384 373.958 467.845C362.727 467.579 351.726 464.606 341.889 459.18V460.039C341.889 493.698 366.238 521.699 398.465 528.073C392.405 529.689 386.16 530.507 379.888 530.508C375.438 530.516 370.998 530.084 366.632 529.219C375.591 556.79 401.666 576.843 432.553 577.415C407.455 596.758 376.641 607.212 344.954 607.136C339.33 607.127 333.711 606.792 328.125 606.133C360.36 626.717 397.831 637.604 436.077 637.5C565.957 637.5 636.913 531.725 636.913 439.987C636.913 436.979 636.834 433.971 636.691 431.035C650.463 421.239 662.377 409.065 671.875 395.085V395.085Z" fill="black"/>
</svg>
